# xmcd
# Track frame offsets:
# 183
# 12690
# 22960
# 34483
# 49215
# 64180
# 79258
# 92908
# 104743
# 119915
# 132443
# 140385
# 154885
# 168710
# 179448
# 192315
# 204530
# 216998
#
# Disc length: 3069 seconds
# Revision: 0
# Processed by: cddbd v1.5.2PL0 Copyright (c) Steve Scherf et al.
# Submitted via: VisiTrax 2.11.3.279 - For more info visit www.synapsa.com
#
DISCID=200bfb12
DTITLE=Johnny Cash - Ring Of Fire
DYEAR=1995
DGENRE=Country
TTITLE0=Ring Of Fire
TTITLE1=Thing Called Love
TTITLE2=I Walk The Line
TTITLE3=Long Black Veil
TTITLE4=Cat's In The Cradle
TTITLE5=Going By The Book
TTITLE6=As Long As I Live
TTITLE7=The Ways Of A Woman In Love
TTITLE8=The Night Hank Williams Came To Town
TTITLE9=Folsom Prison Blues
TTITLE10=Five Feet High And Rising
TTITLE11=The Mystery Of Life
TTITLE12=That's One You Owe Me
TTITLE13=Supper Time
TTITLE14=Family Bible
TTITLE15=The Big Light
TTITLE16=Sixteen Tons
TTITLE17=Peace In The Valley
EXTD=Polygram Pty. Limited
EXTT0=
EXTT1=
EXTT2=
EXTT3=
EXTT4=
EXTT5=
EXTT6=
EXTT7=
EXTT8=
EXTT9=
EXTT10=
EXTT11=
EXTT12=
EXTT13=
EXTT14=
EXTT15=
EXTT16=
EXTT17=
PLAYORDER=
